<svg xmlns="http://www.w3.org/2000/svg" width="1260" height="450"><path d="M717 271.2l17.1 11.4q9 6.9 9 13.2 0 6-7.5 17.1-7.8 11.4-15.6 11.4-4.8 0-15-6.9l-6.9-4.8-9-6q-23.7 18-53.1 18-39.3 0-66.6-27.9-27-27.9-27-66.6 0-21 7.8-39 7.5-18.9 20.1-31.2 12.9-12.6 29.4-19.5 16.5-7.2 33.9-7.2 37.5 0 65.4 27 27.6 27.3 27.6 69 0 21-9.3 42zm-129.6-42q0 22.2 14.4 36.6 15 13.8 33 13.8t32.4-13.5q14.4-13.8 14.4-36.9 0-23.1-14.7-37.2-14.4-13.8-32.4-13.8t-32.7 14.1q-14.4 14.1-14.4 36.6zM809.1 321q-25.8 0-42.6-19.2-16.8-19.5-16.8-47.4V201q.6-3 2.4-6.6 3.6-6.9 19.8-6.9 18 0 21 9.6 1.5 4.2 1.5 12.9v45q0 10.2 6 16.2t15.9 6q10.2 0 16.2-6.3 6.3-6 6.3-15.9v-53.7q.9-3 3-6.9 3-6.6 19.5-6.6 15.9 0 19.5 6.9 1.8 3.9 2.1 6.9l.3 8.7v90l-.3 8.4q-.3 3-2.4 6.3-3.9 6.6-19.5 6.6t-19.2-6q-2.4-4.2-2.4-10.5l-4.5 5.1-6.9 5.7q-9 5.4-18.9 5.4zm94.5-111v-8.4q.6-3 2.4-6.9 3.6-6.6 19.8-6.6 12 0 17.4 4.2 4.2 3.6 4.5 11.1v96l-.3 9q0 3-2.4 6.6-3 6.6-19.5 6.6-15.9 0-19.5-6.9-1.8-3.6-2.4-6.6v-9zm41.4-46.8q-1.8 3.6-6.6 5.1-4.8 1.5-12.9 1.5-7.8 0-12.6-1.5t-6.9-5.4q-1.8-3.9-2.4-6.6v-17.4q.6-3 2.4-6.6 3.6-6.9 19.8-6.9 15.9 0 19.2 6.9 2.1 3.6 2.4 6.6.6 3 .6 9 0 5.7-.6 8.7 0 3-2.4 6.6zm90 113.7h43.8q9.9 0 14.4 2.7 4.5 2.4 6 7.2 1.5 4.8 1.5 12.6 0 8.1-1.5 12.9-1.5 4.8-5.4 6.9-3.6 1.8-6.6 2.1l-9 .3H987q-9 0-15.6-6.6t-6.6-15.6q0-9 6.6-15.6t20.4-18.9l24.9-21.9 12-10.8H993q-14.4 0-18-4.8-4.5-5.7-4.5-15 0-9 1.2-13.2 1.5-4.5 3-6.6 1.8-2.4 5.1-3.6 4.5-1.2 13.2-1.2h82.8q9 0 15.3 6.3 6.6 6.3 6.6 15.9 0 9.6-7.5 16.8zm84.9 6q2.4-4.8 7.5-6.6 5.4-1.8 16.2-1.8 11.4 0 16.2 4.8 5.1 4.8 5.1 15v4.2q0 6-.6 9-.3 3-2.4 6.9-3.9 7.5-19.5 7.5-15 0-20.4-4.8-4.8-5.1-4.8-19.2 0-9.9 2.7-15zm33.9-29.7q-4.8 1.5-12.9 1.5-8.1 0-12.9-1.5-4.8-1.2-6.9-4.5-1.8-3-2.4-6V147q.6-3 2.7-6 2.1-3.6 6.9-4.8 4.8-1.5 12.9-1.5 8.1 0 12.9 1.5 4.8 1.2 6.6 4.8 2.1 3.3 2.4 6l.3 8.1v80.4l-.3 8.1q-.3 2.4-2.4 5.7-2.1 3-6.9 4.2z" fill="#7957d5"/><path style="line-height:normal;font-variant-ligatures:normal;font-variant-position:normal;font-variant-caps:normal;font-variant-numeric:normal;font-variant-alternates:normal;font-feature-settings:normal;text-indent:0;text-align:start;text-decoration-line:none;text-decoration-style:solid;text-decoration-color:#000;text-transform:none;text-orientation:mixed;white-space:normal;shape-padding:0;isolation:auto;mix-blend-mode:normal;solid-color:#000;solid-opacity:1" d="M45 0A45 45 0 000 45v360a45 45 0 0045 45h360a45 45 0 0045-45V45a45 45 0 00-45-45z" color="#000" fill="#7957d5"/><path d="M198.9 230.7l1.2-2.4q3-12.6 12-18 9.6-5.4 18.6-5.4 9 0 17.7-3.9 9-3.6 11.4-12.9 2.4-9.6-1.8-16.5-3.9-6.6-14.7-9.3-10.8-3-16.8-.9-6 1.8-8.1 5.1l-1.8 3q-4.8 7.2-9.3 10.2-4.5 3-10.2 1.5-5.4-1.5-13.5-7.5-15.9-11.4-13.2-21.3 1.2-4.5 4.2-8.4l4.8-6.9q2.1-3 9-9 7.5-6 15.3-10.2 8.4-3.9 21.6-5.4 13.5-1.8 27.9 2.1 31.2 8.4 45.3 33.6 14.4 25.2 7.2 51.3-3 12.6-10.8 22.2-7.2 9.3-15.3 13.8-16.2 9-28.5 9.9l-5.1.3q-1.2 5.1-2.4 7.5-1.2 2.4-4.2 5.1-3 2.4-8.7 2.4-5.1 0-13.8-2.4-8.4-2.4-13.2-5.1-4.5-3-6-6.9-.9-4.2-.6-6.9l1.8-9zm-15 51.9q3.6-3.9 9.9-4.5 6.6-.3 19.5 3 12.9 3.6 17.1 10.8 4.2 7.2 0 23.7-3.3 11.7-7.8 16.8-4.5 4.8-11.1 5.1-6.3 0-18.9-3-12.6-3.6-17.7-11.4-3.6-6.6-.3-18.6l1.2-4.5 3-10.2q1.5-3.3 5.1-7.2z" fill="#fff"/></svg>
